<svg width="162" height="60" viewBox="0 0 162 60" fill="none" xmlns="http://www.w3.org/2000/svg">
<path d="M30 0L55.9808 15V45L30 60L4.01924 45V15L30 0Z" fill="black"/>
<path d="M20.7699 40V19.6364H25.0753V28.0384H33.8153V19.6364H38.1108V40H33.8153V31.5881H25.0753V40H20.7699Z" fill="white"/>
<path d="M61.1378 31V17.9091H63.9055V23.3104H69.5241V17.9091H72.2855V31H69.5241V25.5923H63.9055V31H61.1378ZM74.5675 31V17.9091H83.3885V20.1911H77.3352V23.3104H82.9347V25.5923H77.3352V28.718H83.4141V31H74.5675ZM88.1841 17.9091L90.824 22.3707H90.9263L93.579 17.9091H96.7047L92.7097 24.4545L96.7942 31H93.611L90.9263 26.532H90.824L88.1394 31H84.9689L89.0662 24.4545L85.0456 17.9091H88.1841ZM100.713 31H97.7466L102.266 17.9091H105.833L110.345 31H107.379L104.1 20.9006H103.998L100.713 31ZM100.527 25.8544H107.533V28.0149H100.527V25.8544ZM118.724 21.674C118.673 21.1584 118.453 20.7578 118.065 20.4723C117.678 20.1868 117.151 20.044 116.487 20.044C116.035 20.044 115.653 20.108 115.342 20.2358C115.031 20.3594 114.793 20.532 114.626 20.7536C114.464 20.9751 114.384 21.2266 114.384 21.5078C114.375 21.7422 114.424 21.9467 114.531 22.1214C114.641 22.2962 114.793 22.4474 114.984 22.5753C115.176 22.6989 115.398 22.8075 115.649 22.9013C115.901 22.9908 116.169 23.0675 116.455 23.1314L117.631 23.4126C118.202 23.5405 118.726 23.7109 119.203 23.924C119.68 24.1371 120.094 24.3991 120.443 24.7102C120.793 25.0213 121.063 25.3878 121.255 25.8097C121.451 26.2315 121.551 26.7152 121.555 27.2607C121.551 28.0618 121.347 28.7564 120.942 29.3445C120.541 29.9283 119.962 30.3821 119.203 30.706C118.449 31.0256 117.539 31.1854 116.474 31.1854C115.417 31.1854 114.496 31.0234 113.712 30.6996C112.933 30.3757 112.323 29.8963 111.884 29.2614C111.45 28.6222 111.222 27.8317 111.2 26.8899H113.879C113.908 27.3288 114.034 27.6953 114.256 27.9893C114.482 28.2791 114.782 28.4986 115.157 28.6477C115.536 28.7926 115.964 28.8651 116.442 28.8651C116.911 28.8651 117.317 28.7969 117.663 28.6605C118.012 28.5241 118.283 28.3345 118.474 28.0916C118.666 27.8487 118.762 27.5696 118.762 27.2543C118.762 26.9602 118.675 26.7131 118.5 26.5128C118.33 26.3125 118.078 26.142 117.746 26.0014C117.418 25.8608 117.015 25.733 116.538 25.6179L115.112 25.2599C114.009 24.9915 113.137 24.5717 112.498 24.0007C111.859 23.4297 111.541 22.6605 111.545 21.6932C111.541 20.9006 111.752 20.2081 112.178 19.6158C112.609 19.0234 113.199 18.5611 113.949 18.2287C114.699 17.8963 115.551 17.7301 116.506 17.7301C117.477 17.7301 118.325 17.8963 119.05 18.2287C119.778 18.5611 120.345 19.0234 120.75 19.6158C121.155 20.2081 121.364 20.8942 121.376 21.674H118.724ZM123.417 31V17.9091H126.185V23.3104H131.803V17.9091H134.565V31H131.803V25.5923H126.185V31H123.417ZM148.877 24.4545C148.877 25.8821 148.606 27.0966 148.065 28.098C147.528 29.0994 146.795 29.8643 145.866 30.3928C144.941 30.9169 143.901 31.179 142.747 31.179C141.583 31.179 140.539 30.9148 139.615 30.3864C138.69 29.858 137.959 29.093 137.422 28.0916C136.885 27.0902 136.617 25.8778 136.617 24.4545C136.617 23.027 136.885 21.8125 137.422 20.8111C137.959 19.8097 138.69 19.0469 139.615 18.5227C140.539 17.9943 141.583 17.7301 142.747 17.7301C143.901 17.7301 144.941 17.9943 145.866 18.5227C146.795 19.0469 147.528 19.8097 148.065 20.8111C148.606 21.8125 148.877 23.027 148.877 24.4545ZM146.07 24.4545C146.07 23.5298 145.932 22.75 145.655 22.1151C145.382 21.4801 144.997 20.9986 144.498 20.6705C143.999 20.3423 143.416 20.1783 142.747 20.1783C142.078 20.1783 141.494 20.3423 140.995 20.6705C140.497 20.9986 140.109 21.4801 139.832 22.1151C139.559 22.75 139.423 23.5298 139.423 24.4545C139.423 25.3793 139.559 26.1591 139.832 26.794C140.109 27.429 140.497 27.9105 140.995 28.2386C141.494 28.5668 142.078 28.7308 142.747 28.7308C143.416 28.7308 143.999 28.5668 144.498 28.2386C144.997 27.9105 145.382 27.429 145.655 26.794C145.932 26.1591 146.07 25.3793 146.07 24.4545ZM150.927 31V17.9091H156.092C157.085 17.9091 157.93 18.0987 158.629 18.478C159.328 18.853 159.861 19.375 160.227 20.044C160.598 20.7088 160.783 21.4759 160.783 22.3452C160.783 23.2145 160.596 23.9815 160.221 24.6463C159.846 25.3111 159.303 25.8288 158.591 26.1996C157.884 26.5703 157.027 26.7557 156.021 26.7557H152.729V24.5376H155.574C156.107 24.5376 156.545 24.446 156.891 24.2628C157.24 24.0753 157.5 23.8175 157.67 23.4893C157.845 23.157 157.933 22.7756 157.933 22.3452C157.933 21.9105 157.845 21.5312 157.67 21.2074C157.5 20.8793 157.24 20.6257 156.891 20.4467C156.541 20.2635 156.098 20.1719 155.561 20.1719H153.695V31H150.927Z" fill="black"/>
<path d="M67.7188 40C67.7188 40.8437 67.5664 41.5729 67.2617 42.1875C66.957 42.8021 66.5391 43.276 66.0078 43.6094C65.4766 43.9427 64.8698 44.1094 64.1875 44.1094C63.5052 44.1094 62.8984 43.9427 62.3672 43.6094C61.8359 43.276 61.418 42.8021 61.1133 42.1875C60.8086 41.5729 60.6563 40.8437 60.6563 40C60.6563 39.1562 60.8086 38.4271 61.1133 37.8125C61.418 37.1979 61.8359 36.724 62.3672 36.3906C62.8984 36.0573 63.5052 35.8906 64.1875 35.8906C64.8698 35.8906 65.4766 36.0573 66.0078 36.3906C66.5391 36.724 66.957 37.1979 67.2617 37.8125C67.5664 38.4271 67.7188 39.1562 67.7188 40ZM66.7813 40C66.7813 39.3073 66.6654 38.7227 66.4336 38.2461C66.2044 37.7695 65.8932 37.4089 65.5 37.1641C65.1094 36.9193 64.6719 36.7969 64.1875 36.7969C63.7031 36.7969 63.2643 36.9193 62.8711 37.1641C62.4805 37.4089 62.1693 37.7695 61.9375 38.2461C61.7083 38.7227 61.5938 39.3073 61.5938 40C61.5938 40.6927 61.7083 41.2773 61.9375 41.7539C62.1693 42.2305 62.4805 42.5911 62.8711 42.8359C63.2643 43.0807 63.7031 43.2031 64.1875 43.2031C64.6719 43.2031 65.1094 43.0807 65.5 42.8359C65.8932 42.5911 66.2044 42.2305 66.4336 41.7539C66.6654 41.2773 66.7813 40.6927 66.7813 40ZM75.6914 36V44H74.7539L70.3945 37.7187H70.3164V44H69.3477V36H70.2852L74.6602 42.2969H74.7383V36H75.6914ZM77.6299 44V36H78.5986V43.1406H82.3174V44H77.6299ZM84.7861 36V44H83.8174V36H84.7861ZM93.0723 36V44H92.1348L87.7754 37.7187H87.6973V44H86.7285V36H87.666L92.041 42.2969H92.1191V36H93.0723ZM95.0107 44V36H99.8389V36.8594H95.9795V39.5625H99.5889V40.4219H95.9795V43.1406H99.9014V44H95.0107ZM109.054 38C109.007 37.6042 108.817 37.2969 108.483 37.0781C108.15 36.8594 107.741 36.75 107.257 36.75C106.903 36.75 106.593 36.8073 106.327 36.9219C106.064 37.0365 105.858 37.194 105.71 37.3945C105.564 37.5951 105.491 37.8229 105.491 38.0781C105.491 38.2917 105.542 38.4753 105.644 38.6289C105.748 38.7799 105.881 38.9062 106.042 39.0078C106.203 39.1068 106.373 39.1888 106.55 39.2539C106.727 39.3164 106.89 39.3672 107.038 39.4062L107.851 39.625C108.059 39.6797 108.291 39.7552 108.546 39.8516C108.804 39.9479 109.05 40.0794 109.284 40.2461C109.521 40.4102 109.716 40.6211 109.87 40.8789C110.024 41.1367 110.101 41.4531 110.101 41.8281C110.101 42.2604 109.987 42.651 109.761 43C109.537 43.349 109.209 43.6263 108.776 43.832C108.347 44.0378 107.825 44.1406 107.21 44.1406C106.637 44.1406 106.141 44.0482 105.722 43.8633C105.305 43.6784 104.977 43.4206 104.737 43.0898C104.5 42.7591 104.366 42.375 104.335 41.9375H105.335C105.361 42.2396 105.463 42.4896 105.64 42.6875C105.819 42.8828 106.046 43.0286 106.319 43.125C106.595 43.2187 106.892 43.2656 107.21 43.2656C107.58 43.2656 107.912 43.2057 108.206 43.0859C108.5 42.9635 108.733 42.7943 108.905 42.5781C109.077 42.3594 109.163 42.1042 109.163 41.8125C109.163 41.5469 109.089 41.3307 108.94 41.1641C108.792 40.9974 108.597 40.862 108.354 40.7578C108.112 40.6536 107.851 40.5625 107.569 40.4844L106.585 40.2031C105.96 40.0234 105.465 39.7669 105.101 39.4336C104.736 39.1003 104.554 38.6641 104.554 38.125C104.554 37.6771 104.675 37.2865 104.917 36.9531C105.162 36.6172 105.49 36.3568 105.901 36.1719C106.315 35.9844 106.778 35.8906 107.288 35.8906C107.804 35.8906 108.262 35.9831 108.663 36.168C109.064 36.3503 109.382 36.6003 109.616 36.918C109.853 37.2357 109.978 37.5964 109.991 38H109.054ZM111.693 44V36H112.662V39.5625H116.928V36H117.896V44H116.928V40.4219H112.662V44H111.693ZM126.586 40C126.586 40.8437 126.434 41.5729 126.129 42.1875C125.824 42.8021 125.406 43.276 124.875 43.6094C124.344 43.9427 123.737 44.1094 123.055 44.1094C122.372 44.1094 121.766 43.9427 121.234 43.6094C120.703 43.276 120.285 42.8021 119.98 42.1875C119.676 41.5729 119.523 40.8437 119.523 40C119.523 39.1562 119.676 38.4271 119.98 37.8125C120.285 37.1979 120.703 36.724 121.234 36.3906C121.766 36.0573 122.372 35.8906 123.055 35.8906C123.737 35.8906 124.344 36.0573 124.875 36.3906C125.406 36.724 125.824 37.1979 126.129 37.8125C126.434 38.4271 126.586 39.1562 126.586 40ZM125.648 40C125.648 39.3073 125.533 38.7227 125.301 38.2461C125.072 37.7695 124.76 37.4089 124.367 37.1641C123.977 36.9193 123.539 36.7969 123.055 36.7969C122.57 36.7969 122.132 36.9193 121.738 37.1641C121.348 37.4089 121.036 37.7695 120.805 38.2461C120.576 38.7227 120.461 39.3073 120.461 40C120.461 40.6927 120.576 41.2773 120.805 41.7539C121.036 42.2305 121.348 42.5911 121.738 42.8359C122.132 43.0807 122.57 43.2031 123.055 43.2031C123.539 43.2031 123.977 43.0807 124.367 42.8359C124.76 42.5911 125.072 42.2305 125.301 41.7539C125.533 41.2773 125.648 40.6927 125.648 40ZM128.215 44V36H130.918C131.546 36 132.059 36.1133 132.457 36.3398C132.858 36.5638 133.155 36.8672 133.348 37.25C133.54 37.6328 133.637 38.0599 133.637 38.5312C133.637 39.0026 133.54 39.431 133.348 39.8164C133.158 40.2018 132.863 40.5091 132.465 40.7383C132.066 40.9648 131.556 41.0781 130.934 41.0781H128.996V40.2188H130.902C131.332 40.2188 131.677 40.1445 131.938 39.9961C132.198 39.8477 132.387 39.6471 132.504 39.3945C132.624 39.1393 132.684 38.8516 132.684 38.5312C132.684 38.2109 132.624 37.9245 132.504 37.6719C132.387 37.4193 132.197 37.2214 131.934 37.0781C131.671 36.9323 131.322 36.8594 130.887 36.8594H129.184V44H128.215ZM135.197 44V36H137.9C138.528 36 139.041 36.1133 139.439 36.3398C139.84 36.5638 140.137 36.8672 140.33 37.25C140.523 37.6328 140.619 38.0599 140.619 38.5312C140.619 39.0026 140.523 39.431 140.33 39.8164C140.14 40.2018 139.846 40.5091 139.447 40.7383C139.049 40.9648 138.538 41.0781 137.916 41.0781H135.979V40.2188H137.885C138.314 40.2188 138.66 40.1445 138.92 39.9961C139.18 39.8477 139.369 39.6471 139.486 39.3945C139.606 39.1393 139.666 38.8516 139.666 38.5312C139.666 38.2109 139.606 37.9245 139.486 37.6719C139.369 37.4193 139.179 37.2214 138.916 37.0781C138.653 36.9323 138.304 36.8594 137.869 36.8594H136.166V44H135.197ZM143.148 36V44H142.18V36H143.148ZM151.435 36V44H150.497L146.138 37.7187H146.06V44H145.091V36H146.028L150.403 42.2969H150.481V36H151.435ZM158.842 38.5C158.756 38.237 158.643 38.0013 158.502 37.793C158.364 37.582 158.199 37.4023 158.006 37.2539C157.816 37.1055 157.6 36.9922 157.357 36.9141C157.115 36.8359 156.85 36.7969 156.561 36.7969C156.087 36.7969 155.656 36.9193 155.268 37.1641C154.88 37.4089 154.571 37.7695 154.342 38.2461C154.113 38.7227 153.998 39.3073 153.998 40C153.998 40.6927 154.114 41.2773 154.346 41.7539C154.577 42.2305 154.891 42.5911 155.287 42.8359C155.683 43.0807 156.128 43.2031 156.623 43.2031C157.081 43.2031 157.485 43.1055 157.834 42.9102C158.186 42.7122 158.459 42.4336 158.654 42.0742C158.852 41.7122 158.951 41.2865 158.951 40.7969L159.248 40.8594H156.842V40H159.889V40.8594C159.889 41.5182 159.748 42.0911 159.467 42.5781C159.188 43.0651 158.803 43.4427 158.311 43.7109C157.821 43.9766 157.258 44.1094 156.623 44.1094C155.915 44.1094 155.292 43.9427 154.756 43.6094C154.222 43.276 153.805 42.8021 153.506 42.1875C153.209 41.5729 153.061 40.8437 153.061 40C153.061 39.3672 153.145 38.7982 153.314 38.293C153.486 37.7852 153.729 37.3529 154.041 36.9961C154.354 36.6393 154.723 36.3659 155.15 36.1758C155.577 35.9857 156.048 35.8906 156.561 35.8906C156.982 35.8906 157.376 35.9544 157.74 36.082C158.107 36.207 158.434 36.3854 158.721 36.6172C159.01 36.8464 159.251 37.1211 159.443 37.4414C159.636 37.7591 159.769 38.112 159.842 38.5H158.842Z" fill="black"/>
</svg>
